<svg xmlns="http://www.w3.org/2000/svg" width="48" height="48" fill="#7cc148"><path opacity=".6" d="M41.667 12.667c.884 0 1.732.359 2.357.998S45 15.17 45 16.074v24.519c0 .904-.351 1.77-.976 2.409S42.551 44 41.667 44h-32c-.884 0-1.732-.359-2.357-.998s-.976-1.506-.976-2.409V27.37c0-.452.176-.885.488-1.205a1.65 1.65 0 0 1 2.357 0c.313.319.488.753.488 1.205v9.245l10.992-8.508a2.08 2.08 0 0 1 .676-.462c.253-.107.524-.162.797-.162s.545.055.797.162a2.08 2.08 0 0 1 .676.462l6.775 6.927L33 33a2.08 2.08 0 0 1 .676-.462c.253-.107.524-.162.797-.162s.545.055.797.162l1.22.544 5.175 3.535V16.074h-9.333a1.65 1.65 0 0 1-1.178-.499c-.313-.319-.488-.753-.488-1.205s.176-.885.488-1.205a1.65 1.65 0 0 1 1.178-.499h9.333zm-8.5 7.815c.663 0 1.299.269 1.768.749s.732 1.129.732 1.807-.263 1.328-.732 1.807-1.105.749-1.768.749-1.299-.269-1.768-.749-.732-1.129-.732-1.807.263-1.328.732-1.807 1.105-.748 1.768-.748z"/><path d="M6.988 3.191c.033-.255.403-.255.435 0a4.39 4.39 0 0 0 3.797 3.797c.256.033.256.403 0 .435a4.39 4.39 0 0 0-3.797 3.797c-.032.256-.402.256-.435 0a4.39 4.39 0 0 0-3.797-3.797c-.255-.032-.255-.402 0-.435 1.984-.253 3.544-1.814 3.797-3.797zm9.016 3.574c.068-.533.841-.533.908 0a10.68 10.68 0 0 0 9.242 9.241c.533.068.533.841 0 .908a10.68 10.68 0 0 0-9.242 9.242c-.067.533-.84.533-.908 0a10.68 10.68 0 0 0-9.241-9.242c-.533-.067-.533-.84 0-.908a10.68 10.68 0 0 0 9.241-9.241z"/></svg>